<?xml version="1.0" standalone="no"?>
<!DOCTYPE svg PUBLIC "-//W3C//DTD SVG 20010904//EN"
 "http://www.w3.org/TR/2001/REC-SVG-20010904/DTD/svg10.dtd">
<svg version="1.0" xmlns="http://www.w3.org/2000/svg"
 width="100.000000pt" height="100.000000pt" viewBox="0 0 100.000000 100.000000"
 preserveAspectRatio="xMidYMid meet">
<metadata>
Created by potrace 1.11, written by Peter Selinger 2001-2013
</metadata>
<g transform="translate(0.000000,100.000000) scale(0.100000,-0.100000)"
fill="#000000" stroke="none">
<path d="M169 840 c-2 -14 -6 -29 -9 -32 -1 -2 -4 -19 -7 -38 -2 -19 -9 -37
-14 -38 -6 -2 -33 -19 -60 -38 -28 -19 -55 -34 -60 -34 -19 0 -8 -19 13 -22
25 -3 24 12 27 -369 l1 -116 198 -3 c436 -6 714 -3 721 8 8 14 6 340 -2 348
-4 4 -2 14 3 24 5 10 7 20 4 23 -12 11 -11 156 1 160 6 3 9 22 7 47 l-4 42
-117 -7 c-64 -4 -141 -8 -171 -9 -30 -2 -80 -7 -110 -11 -63 -9 -111 -13 -262
-19 l-107 -5 -11 37 c-5 20 -10 43 -10 50 0 14 -29 17 -31 2z"/>
</g>
</svg>
